<?xml version="1.0" encoding="UTF-8"?>
<svg id="Ebene_1" xmlns="http://www.w3.org/2000/svg" viewBox="0 0 84.9 190.3">
  <defs>
    <style>
      .cls-1 {
        fill: #ff579c;
      }
    </style>
  </defs>
  <polygon class="cls-1" points="11.6 96.9 11.6 93.5 73.2 93.5 73.2 96.9 11.6 96.9"/>
  <polygon class="cls-1" points="40.7 12 44.1 12 44.1 178.4 40.7 178.4 40.7 12"/>
  <path class="cls-1" d="M35.4,7.3c0-4,3.3-7.3,7.3-7.3h0c4,0,7.3,3.3,7.3,7.3h0c0,4-3.3,7.3-7.3,7.3h0c-4,0-7.3-3.3-7.3-7.3h0ZM38.8,7.3c0,2.2,1.8,3.9,3.9,3.9h0c2.2,0,3.9-1.8,3.9-3.9h0c0-2.2-1.8-3.9-3.9-3.9h0c-2.2-.1-3.9,1.7-3.9,3.9h0Z"/>
  <path class="cls-1" d="M34.9,183c0-4,3.3-7.3,7.3-7.3h0c4,0,7.3,3.3,7.3,7.3h0c0,4-3.3,7.3-7.3,7.3h0c-4,0-7.3-3.3-7.3-7.3h0ZM38.3,183c0,2.2,1.8,3.9,3.9,3.9h0c2.2,0,3.9-1.8,3.9-3.9h0c0-2.2-1.8-3.9-3.9-3.9h0c-2.1-.1-3.9,1.7-3.9,3.9h0Z"/>
  <path class="cls-1" d="M70.3,95c0-4.1,3.3-7.3,7.3-7.3h0c4,0,7.3,3.3,7.3,7.3h0c0,4-3.3,7.3-7.3,7.3h0c-4,0-7.3-3.2-7.3-7.3h0ZM73.7,95c0,2.2,1.8,3.9,3.9,3.9h0c2.2,0,3.9-1.8,3.9-3.9h0c0-2.2-1.8-3.9-3.9-3.9h0c-2.1,0-3.9,1.7-3.9,3.9h0Z"/>
  <path class="cls-1" d="M0,95c0-4,3.3-7.3,7.3-7.3h0c4,0,7.3,3.3,7.3,7.3h0c0,4-3.3,7.3-7.3,7.3h0c-4,0-7.3-3.2-7.3-7.3h0ZM3.4,95c0,2.2,1.8,3.9,3.9,3.9h0c2.2,0,3.9-1.8,3.9-3.9h0c0-2.2-1.8-3.9-3.9-3.9h0c-2.2,0-3.9,1.7-3.9,3.9h0Z"/>
</svg>